<?xml version="1.0" encoding="UTF-8"?>
<svg width="282px" height="64px" viewBox="0 0 282 64" version="1.1" xmlns="http://www.w3.org/2000/svg" xmlns:xlink="http://www.w3.org/1999/xlink">
    <!-- Generator: Sketch 49.3 (51167) - http://www.bohemiancoding.com/sketch -->
    <title>logo_name</title>
    <desc>Created with Sketch.</desc>
    <defs></defs>
    <g id="Page-1" stroke="none" stroke-width="1" fill="none" fill-rule="evenodd">
        <text id="magmo" font-family="HiraKakuStd-W8, Hiragino Kaku Gothic Std" font-size="48" font-weight="600" fill="#000000">
            <tspan x="67" y="44">magmo</tspan>
        </text>
        <path d="M51.0901233,45.7000132 C39.1895759,54.6465143 32.6014377,49.6994172 27.0542557,58.723606 C25.9616724,54.4917925 31.9909367,48.3120541 33.6716438,44.7745345 C23.3252907,55.028721 14.1442006,50.4227221 6.59004034,60.7509489 C8.87404249,40.7208757 13.6784952,38.3668225 17.0776367,29.3696289 C13.9301758,32.6674805 10.2695312,34.9414062 3.41699219,34.4453125 C10.2431641,30.1757812 13.5839844,16.7734375 17.5415009,12.6976784 C17.5484867,12.6904839 17.5554853,12.6833115 17.5624967,12.6761613 L17.5545572,12.6683567 C22.787386,5.10923918 32.1642101,0.941691323 41.7671987,2.80832323 C54.7185744,5.32581563 63.1769079,17.8658109 60.6594155,30.8171865 C59.4443884,37.0679594 55.8947647,42.2721435 51.0910514,45.7009274 L51.0901233,45.7000132 Z M35.0155008,37.0984125 C38.2742525,36.6662277 43.2048645,34.3265686 45.1328609,31.7558526 C45.9000452,30.662768 46.4550046,29.3943164 46.7262862,27.9986933 C47.7591036,22.6853084 44.289018,17.540695 38.9756332,16.5078776 C35.4130931,15.81539 31.9264241,17.1471775 29.6965027,19.7166748 C25.7184448,24.6552124 29.7986402,29.866374 24.4000244,39.0896155 C30.1746404,39.0627697 35.8830542,33.2159077 38.3739549,30.8770156 C38.2489277,31.8437408 37.2601856,35.1621681 35.0155008,37.0984125 Z" id="Combined-Shape" fill="#000000"></path>
    </g>
</svg>