<?xml version="1.0" standalone="no"?>
<!DOCTYPE svg PUBLIC "-//W3C//DTD SVG 1.0//EN" "http://www.w3.org/TR/2001/REC-SVG-20010904/DTD/svg10.dtd">
<svg xmlns="http://www.w3.org/2000/svg" xmlns:xlink="http://www.w3.org/1999/xlink" id="body_1" width="1000" height="700">

<g transform="matrix(14 0 0 14 0 0)" fill-opacity="0.25">
        <path d="M51.090122 45.700012C 39.189575 54.646515 32.601437 49.699417 27.054256 58.723606C 25.961672 54.49179 31.990936 48.312054 33.671642 44.774536C 23.32529 55.02872 14.1442 50.42272 6.59004 60.75095C 8.8740425 40.720875 13.678495 38.36682 17.077637 29.369629C 13.930176 32.66748 10.269531 34.941406 3.4169922 34.445312C 10.243164 30.175781 13.583984 16.773438 17.5415 12.697679C 17.548487 12.690484 17.555485 12.683311 17.562496 12.676162L17.562496 12.676162L17.554558 12.668357C 22.787386 5.109239 32.16421 0.94169134 41.7672 2.8083231C 54.718575 5.3258157 63.176907 17.86581 60.659416 30.817186C 59.44439 37.06796 55.894764 42.272144 51.091053 45.700928L51.091053 45.700928L51.090122 45.700012zM35.0155 37.09841C 38.274254 36.66623 43.204865 34.32657 45.132862 31.755852C 45.900043 30.662767 46.455006 29.394316 46.726288 27.998693C 47.7591 22.685308 44.289017 17.540695 38.97563 16.507877C 35.413094 15.81539 31.926424 17.147177 29.696503 19.716675C 25.718445 24.655212 29.79864 29.866373 24.400024 39.089615C 30.17464 39.06277 35.883053 33.215908 38.373955 30.877016C 38.248928 31.84374 37.260185 35.162167 35.0155 37.09841z" stroke="none" fill="#9B9B9B" fill-rule="nonzero" transform="translate(-3 -2.2)"/>
</g>
</svg>