<?xml version="1.0" encoding="UTF-8"?>
<svg width="1024px" height="768px" viewBox="0 0 1024 768" version="1.1" xmlns="http://www.w3.org/2000/svg" xmlns:xlink="http://www.w3.org/1999/xlink">
    <!-- Generator: Sketch 52.2 (67145) - http://www.bohemiancoding.com/sketch -->
    <title>Slice</title>
    <desc>Created with Sketch.</desc>
    <g id="Page-1" stroke="none" stroke-width="1" fill="none" fill-rule="evenodd" fill-opacity="0.25">
        <path d="M377.970624,737.582853 C237.687034,844.231087 160.026094,785.258405 94.6359408,892.832727 C81.7565744,842.386701 152.829511,768.720116 172.641678,726.550533 C50.6789206,848.787244 -57.5477224,793.880679 -146.596125,917 C-119.672319,678.228229 -63.0374552,650.166352 -22.9683924,542.91383 C-60.0706458,582.22641 -103.222305,609.333116 -184,603.419349 C-103.533121,552.523701 -64.1515483,392.758865 -17.5003641,344.173111 C-17.4180158,344.087347 -17.3355163,344.001848 -17.2528658,343.916613 L-17.3464563,343.823577 C44.338103,253.713877 154.872057,204.033939 268.072038,226.285431 C420.742787,256.295612 520.44958,405.780681 490.773392,560.169678 C476.450658,634.683042 434.607712,696.720371 377.981566,737.593752 L377.970624,737.582853 Z M188.483057,635.046062 C226.897205,629.894133 285.019234,602.003843 307.746447,571.359201 C316.79001,558.328907 323.331869,543.208121 326.529735,526.571368 C338.704582,463.232292 297.799231,401.905084 235.165077,389.593215 C193.169873,381.338303 152.069037,397.214094 125.782735,427.844208 C78.8894091,486.714855 126.986731,548.835361 63.3478761,658.782524 C131.41902,658.462505 198.709772,588.764027 228.072497,560.882881 C226.598677,572.406887 214.94339,611.964743 188.483057,635.046062 Z" id="Combined-Shape-Copy-2" fill="#9B9B9B"></path>
    </g>
</svg>