<?xml version="1.0" encoding="UTF-8"?>
<svg width="583px" height="588px" viewBox="0 0 583 588" version="1.1" xmlns="http://www.w3.org/2000/svg" xmlns:xlink="http://www.w3.org/1999/xlink">
    <!-- Generator: Sketch 52.2 (67145) - http://www.bohemiancoding.com/sketch -->
    <title>Slice</title>
    <desc>Created with Sketch.</desc>
    <g id="Page-1" stroke="none" stroke-width="1" fill="none" fill-rule="evenodd" fill-opacity="0.25">
        <path d="M464.970624,516.582853 C324.687034,623.231087 247.026094,564.258405 181.635941,671.832727 C168.756574,621.386701 239.829511,547.720116 259.641678,505.550533 C137.678921,627.787244 29.4522776,572.880679 -59.5961247,696 C-32.6723191,457.228229 23.9625448,429.166352 64.0316076,321.91383 C26.9293542,361.22641 -16.2223047,388.333116 -97,382.419349 C-16.533121,331.523701 22.8484517,171.758865 69.4996359,123.173111 C69.5819842,123.087347 69.6644837,123.001848 69.7471342,122.916613 L69.6535437,122.823577 C131.338103,32.7138768 241.872057,-16.9660608 355.072038,5.28543088 C507.742787,35.2956118 607.44958,184.780681 577.773392,339.169678 C563.450658,413.683042 521.607712,475.720371 464.981566,516.593752 L464.970624,516.582853 Z M275.483057,414.046062 C313.897205,408.894133 372.019234,381.003843 394.746447,350.359201 C403.79001,337.328907 410.331869,322.208121 413.529735,305.571368 C425.704582,242.232292 384.799231,180.905084 322.165077,168.593215 C280.169873,160.338303 239.069037,176.214094 212.782735,206.844208 C165.889409,265.714855 213.986731,327.835361 150.347876,437.782524 C218.41902,437.462505 285.709772,367.764027 315.072497,339.882881 C313.598677,351.406887 301.94339,390.964743 275.483057,414.046062 Z" id="Combined-Shape-Copy-2" fill="#9B9B9B"></path>
    </g>
</svg>