<?xml version="1.0" encoding="UTF-8"?>
<svg width="680px" height="696px" viewBox="0 0 680 696" version="1.1" xmlns="http://www.w3.org/2000/svg" xmlns:xlink="http://www.w3.org/1999/xlink">
    <!-- Generator: Sketch 53.1 (72631) - https://sketchapp.com -->
    <title>bg</title>
    <desc>Created with Sketch.</desc>
    <g id="Page-1" stroke="none" stroke-width="1" fill="none" fill-rule="evenodd" opacity="0.521158854">
        <g id="bg" transform="translate(340.000000, 348.000000) rotate(-180.000000) translate(-340.000000, -348.000000) " fill="#9B9B9B" fill-rule="nonzero">
            <path d="M561.970624,516.582853 C421.687034,623.231087 344.026094,564.258405 278.635941,671.832727 C265.756574,621.386701 336.829511,547.720116 356.641678,505.550533 C234.678921,627.787244 126.452278,572.880679 37.4038753,696 C64.3276809,457.228229 120.962545,429.166352 161.031608,321.91383 C123.929354,361.22641 80.7776953,388.333116 0,382.419349 C80.466879,331.523701 119.848452,171.758865 166.499636,123.173111 C166.581984,123.087347 166.664484,123.001848 166.747134,122.916613 L166.653544,122.823577 C228.338103,32.7138768 338.872057,-16.9660608 452.072038,5.28543088 C604.742787,35.2956118 704.44958,184.780681 674.773392,339.169678 C660.450658,413.683042 618.607712,475.720371 561.981566,516.593752 L561.970624,516.582853 Z M372.483057,414.046062 C410.897205,408.894133 469.019234,381.003843 491.746447,350.359201 C500.79001,337.328907 507.331869,322.208121 510.529735,305.571368 C522.704582,242.232292 481.799231,180.905084 419.165077,168.593215 C377.169873,160.338303 336.069037,176.214094 309.782735,206.844208 C262.889409,265.714855 310.986731,327.835361 247.347876,437.782524 C315.41902,437.462505 382.709772,367.764027 412.072497,339.882881 C410.598677,351.406887 398.94339,390.964743 372.483057,414.046062 Z" id="Combined-Shape-Copy-2"></path>
        </g>
    </g>
</svg>